<svg width="128" height="128" viewBox="0 0 128 128" fill="none" xmlns="http://www.w3.org/2000/svg">
  <circle cx="64" cy="64" r="64" fill="#3B82F6"/>
  <path d="M64 24C48.536 24 36 36.536 36 52C36 67.464 48.536 80 64 80C79.464 80 92 67.464 92 52C92 36.536 79.464 24 64 24Z" fill="#FFFFFF"/>
  <path d="M64 84C42.909 84 26 100.909 26 122C26 125.314 28.686 128 32 128H96C99.314 128 102 125.314 102 122C102 100.909 85.091 84 64 84Z" fill="#FFFFFF"/>
  <path d="M56 48C56 50.2091 57.7909 52 60 52C62.2091 52 64 50.2091 64 48C64 45.7909 62.2091 44 60 44C57.7909 44 56 45.7909 56 48Z" fill="#3B82F6"/>
  <path d="M64 48C64 50.2091 65.7909 52 68 52C70.2091 52 72 50.2091 72 48C72 45.7909 70.2091 44 68 44C65.7909 44 64 45.7909 64 48Z" fill="#3B82F6"/>
  <path d="M56 60C56 64 59.582 68 64 68C68.418 68 72 64 72 60" stroke="#3B82F6" stroke-width="2" stroke-linecap="round"/>
  <path d="M44 40C44 40 48 36 52 36M76 36C80 36 84 40 84 40" stroke="#3B82F6" stroke-width="2" stroke-linecap="round"/>
</svg> 